<svg width="96" height="96" viewBox="0 0 96 96" fill="none" xmlns="http://www.w3.org/2000/svg">
  <defs>
    <linearGradient id="outer" x1="16" y1="16" x2="80" y2="80" gradientUnits="userSpaceOnUse">
      <stop stop-color="#8A35FF"/>
      <stop offset="0.28" stop-color="#1FA7FF"/>
      <stop offset="0.58" stop-color="#FF7A21"/>
      <stop offset="1" stop-color="#FF3F7E"/>
    </linearGradient>
    <linearGradient id="blueFacet" x1="18" y1="20" x2="50" y2="58" gradientUnits="userSpaceOnUse">
      <stop stop-color="#9248FF"/>
      <stop offset="0.5" stop-color="#2BBAFF"/>
      <stop offset="1" stop-color="#35D8EA"/>
    </linearGradient>
    <linearGradient id="warmFacet" x1="42" y1="38" x2="78" y2="76" gradientUnits="userSpaceOnUse">
      <stop stop-color="#FFB13D"/>
      <stop offset="0.45" stop-color="#FF6A2D"/>
      <stop offset="1" stop-color="#FF3F80"/>
    </linearGradient>
    <filter id="shadow" x="5" y="5" width="86" height="90" filterUnits="userSpaceOnUse" color-interpolation-filters="sRGB">
      <feDropShadow dx="0" dy="8" stdDeviation="8" flood-color="#FC5A55" flood-opacity="0.22"/>
    </filter>
  </defs>
  <g filter="url(#shadow)">
    <rect x="17.45" y="17.45" width="61.1" height="61.1" rx="15.5" transform="rotate(45 48 48)" fill="url(#outer)"/>
    <path d="M23.4 48C22.3 46.9 22.3 45.1 23.4 44L42.6 24.8C44.2 23.2 46.9 24.3 46.9 26.6V44.2C46.9 45.7 45.7 46.9 44.2 46.9H26.6C25.4 46.9 24.2 47.3 23.4 48Z" fill="url(#blueFacet)" opacity="0.98"/>
    <path d="M48 72.6C46.9 73.7 45.1 73.7 44 72.6L24.8 53.4C23.2 51.8 24.3 49.1 26.6 49.1H44.2C45.7 49.1 46.9 50.3 46.9 51.8V69.4C46.9 70.6 47.3 71.8 48 72.6Z" fill="#36B9F2" opacity="0.92"/>
    <path d="M72.6 48C73.7 49.1 73.7 50.9 72.6 52L53.4 71.2C51.8 72.8 49.1 71.7 49.1 69.4V51.8C49.1 50.3 50.3 49.1 51.8 49.1H69.4C70.6 49.1 71.8 48.7 72.6 48Z" fill="url(#warmFacet)" opacity="0.98"/>
    <path d="M48 23.4C49.1 22.3 50.9 22.3 52 23.4L71.2 42.6C72.8 44.2 71.7 46.9 69.4 46.9H51.8C50.3 46.9 49.1 45.7 49.1 44.2V26.6C49.1 25.4 48.7 24.2 48 23.4Z" fill="#FF7046" opacity="0.9"/>
    <rect x="36" y="36" width="24" height="24" rx="6.5" transform="rotate(45 48 48)" fill="white" fill-opacity="0.96"/>
    <path d="M28 38C33 30 40 27 47 29" stroke="white" stroke-width="6" stroke-linecap="round" opacity="0.42"/>
    <path d="M56 66C64 62 68 56 67 50" stroke="white" stroke-width="5" stroke-linecap="round" opacity="0.34"/>
  </g>
</svg>
